<?xml version="1.0" encoding="UTF-8" standalone="no"?>
<!DOCTYPE svg PUBLIC "-//W3C//DTD SVG 1.1//EN"
 "http://www.w3.org/Graphics/SVG/1.1/DTD/svg11.dtd">
<!-- Generated by graphviz version 2.43.0 (0)
 -->
<!-- Title: architecture Pages: 1 -->
<svg width="819pt" height="588pt"
 viewBox="0.00 0.00 819.00 588.00" xmlns="http://www.w3.org/2000/svg" xmlns:xlink="http://www.w3.org/1999/xlink">
<g id="graph0" class="graph" transform="scale(1 1) rotate(0) translate(4 584)">
<title>architecture</title>
<polygon fill="white" stroke="transparent" points="-4,4 -4,-584 815,-584 815,4 -4,4"/>
<g id="clust1" class="cluster">
<title>cluster_discord</title>
<polygon fill="lightgray" stroke="black" points="274,-186 274,-263 803,-263 803,-186 274,-186"/>
<text text-anchor="middle" x="538.5" y="-247.8" font-family="Times,serif" font-size="14.00">🎮 Discord</text>
</g>
<g id="clust2" class="cluster">
<title>cluster_heroku</title>
<polygon fill="lightyellow" stroke="black" points="354,-406 354,-572 642,-572 642,-406 354,-406"/>
<text text-anchor="middle" x="498" y="-556.8" font-family="Times,serif" font-size="14.00">☁️ Heroku (Cloud)</text>
</g>
<g id="clust3" class="cluster">
<title>cluster_functions</title>
<polygon fill="lightpink" stroke="black" points="8,-8 8,-373 266,-373 266,-8 8,-8"/>
<text text-anchor="middle" x="137" y="-357.8" font-family="Times,serif" font-size="14.00">🔧 Fonctions principales</text>
</g>
<!-- server -->
<g id="node1" class="node">
<title>server</title>
<path fill="lightblue" stroke="black" d="M783,-232C783,-232 661,-232 661,-232 655,-232 649,-226 649,-220 649,-220 649,-206 649,-206 649,-200 655,-194 661,-194 661,-194 783,-194 783,-194 789,-194 795,-200 795,-206 795,-206 795,-220 795,-220 795,-226 789,-232 783,-232"/>
<text text-anchor="middle" x="722" y="-216.8" font-family="Times,serif" font-size="14.00">Serveur Discord</text>
<text text-anchor="middle" x="722" y="-201.8" font-family="Times,serif" font-size="14.00">&#39;Le Démon du Jeu&#39;</text>
</g>
<!-- bot -->
<g id="node4" class="node">
<title>bot</title>
<path fill="lightgreen" stroke="black" d="M495.5,-452C495.5,-452 418.5,-452 418.5,-452 412.5,-452 406.5,-446 406.5,-440 406.5,-440 406.5,-426 406.5,-426 406.5,-420 412.5,-414 418.5,-414 418.5,-414 495.5,-414 495.5,-414 501.5,-414 507.5,-420 507.5,-426 507.5,-426 507.5,-440 507.5,-440 507.5,-446 501.5,-452 495.5,-452"/>
<text text-anchor="middle" x="457" y="-436.8" font-family="Times,serif" font-size="14.00">Bot Discord</text>
<text text-anchor="middle" x="457" y="-421.8" font-family="Times,serif" font-size="14.00">Node.js</text>
</g>
<!-- server&#45;&gt;bot -->
<g id="edge12" class="edge">
<title>server&#45;&gt;bot</title>
<path fill="none" stroke="black" stroke-dasharray="5,2" d="M700.11,-232.01C652.77,-270.95 540.81,-363.05 486.96,-407.36"/>
<polygon fill="black" stroke="black" points="484.64,-404.73 479.14,-413.79 489.08,-410.14 484.64,-404.73"/>
<text text-anchor="middle" x="685" y="-326.8" font-family="Times,serif" font-size="14.00">!create&#45;plateau&#45;post</text>
<text text-anchor="middle" x="685" y="-311.8" font-family="Times,serif" font-size="14.00">!process&#45;next&#45;month</text>
</g>
<!-- forum -->
<g id="node2" class="node">
<title>forum</title>
<path fill="lightblue" stroke="black" d="M619,-232C619,-232 499,-232 499,-232 493,-232 487,-226 487,-220 487,-220 487,-206 487,-206 487,-200 493,-194 499,-194 499,-194 619,-194 619,-194 625,-194 631,-200 631,-206 631,-206 631,-220 631,-220 631,-226 625,-232 619,-232"/>
<text text-anchor="middle" x="559" y="-216.8" font-family="Times,serif" font-size="14.00">Canal Forum</text>
<text text-anchor="middle" x="559" y="-201.8" font-family="Times,serif" font-size="14.00">&#39;planning&#45;plateau&#39;</text>
</g>
<!-- check_duplicates -->
<g id="node10" class="node">
<title>check_duplicates</title>
<path fill="lightcoral" stroke="black" d="M241.5,-143C241.5,-143 98.5,-143 98.5,-143 92.5,-143 86.5,-137 86.5,-131 86.5,-131 86.5,-117 86.5,-117 86.5,-111 92.5,-105 98.5,-105 98.5,-105 241.5,-105 241.5,-105 247.5,-105 253.5,-111 253.5,-117 253.5,-117 253.5,-131 253.5,-131 253.5,-137 247.5,-143 241.5,-143"/>
<text text-anchor="middle" x="170" y="-127.8" font-family="Times,serif" font-size="14.00">checkForDuplicates()</text>
<text text-anchor="middle" x="170" y="-112.8" font-family="Times,serif" font-size="14.00">Vérifie doublons</text>
</g>
<!-- forum&#45;&gt;check_duplicates -->
<g id="edge8" class="edge">
<title>forum&#45;&gt;check_duplicates</title>
<path fill="none" stroke="black" d="M509.83,-193.95C499.45,-190.78 488.46,-187.89 478,-186 386.06,-169.36 358.21,-200.36 268,-176 256.17,-172.81 231.74,-160.1 210.24,-148.17"/>
<polygon fill="black" stroke="black" points="211.68,-144.97 201.25,-143.14 208.26,-151.07 211.68,-144.97"/>
<text text-anchor="middle" x="322.5" y="-164.8" font-family="Times,serif" font-size="14.00">Posts existants</text>
</g>
<!-- events -->
<g id="node3" class="node">
<title>events</title>
<path fill="lightblue" stroke="black" d="M456.5,-232C456.5,-232 293.5,-232 293.5,-232 287.5,-232 281.5,-226 281.5,-220 281.5,-220 281.5,-206 281.5,-206 281.5,-200 287.5,-194 293.5,-194 293.5,-194 456.5,-194 456.5,-194 462.5,-194 468.5,-200 468.5,-206 468.5,-206 468.5,-220 468.5,-220 468.5,-226 462.5,-232 456.5,-232"/>
<text text-anchor="middle" x="375" y="-216.8" font-family="Times,serif" font-size="14.00">Événements Discord</text>
<text text-anchor="middle" x="375" y="-201.8" font-family="Times,serif" font-size="14.00">(récurrents/spécifiques)</text>
</g>
<!-- fetch_events -->
<g id="node7" class="node">
<title>fetch_events</title>
<path fill="lightcoral" stroke="black" d="M245.5,-342C245.5,-342 28.5,-342 28.5,-342 22.5,-342 16.5,-336 16.5,-330 16.5,-330 16.5,-316 16.5,-316 16.5,-310 22.5,-304 28.5,-304 28.5,-304 245.5,-304 245.5,-304 251.5,-304 257.5,-310 257.5,-316 257.5,-316 257.5,-330 257.5,-330 257.5,-336 251.5,-342 245.5,-342"/>
<text text-anchor="middle" x="137" y="-326.8" font-family="Times,serif" font-size="14.00">fetchDiscordEventsWithRetry()</text>
<text text-anchor="middle" x="137" y="-311.8" font-family="Times,serif" font-size="14.00">Récupère événements</text>
</g>
<!-- events&#45;&gt;fetch_events -->
<g id="edge4" class="edge">
<title>events&#45;&gt;fetch_events</title>
<path fill="none" stroke="black" d="M342.34,-232.02C322.06,-242.5 295.16,-255.15 270,-263 249.77,-269.31 242.36,-262.39 223,-271 213.17,-275.37 213,-280.1 204,-286 197.25,-290.43 189.89,-294.8 182.62,-298.88"/>
<polygon fill="black" stroke="black" points="180.57,-296.01 173.49,-303.89 183.94,-302.15 180.57,-296.01"/>
<text text-anchor="middle" x="286.5" y="-274.8" font-family="Times,serif" font-size="14.00">Liste événements</text>
</g>
<!-- bot&#45;&gt;fetch_events -->
<g id="edge2" class="edge">
<title>bot&#45;&gt;fetch_events</title>
<path fill="none" stroke="black" d="M406.3,-414.89C350.45,-396.04 260.59,-365.71 200.2,-345.33"/>
<polygon fill="black" stroke="black" points="201,-341.9 190.4,-342.02 198.76,-348.54 201,-341.9"/>
<text text-anchor="middle" x="390.5" y="-384.8" font-family="Times,serif" font-size="14.00">1. Récupérer</text>
</g>
<!-- cron -->
<g id="node5" class="node">
<title>cron</title>
<path fill="lightgreen" stroke="black" d="M612.5,-541C612.5,-541 529.5,-541 529.5,-541 523.5,-541 517.5,-535 517.5,-529 517.5,-529 517.5,-515 517.5,-515 517.5,-509 523.5,-503 529.5,-503 529.5,-503 612.5,-503 612.5,-503 618.5,-503 624.5,-509 624.5,-515 624.5,-515 624.5,-529 624.5,-529 624.5,-535 618.5,-541 612.5,-541"/>
<text text-anchor="middle" x="571" y="-525.8" font-family="Times,serif" font-size="14.00">Planificateur</text>
<text text-anchor="middle" x="571" y="-510.8" font-family="Times,serif" font-size="14.00">(node&#45;cron)</text>
</g>
<!-- cron&#45;&gt;bot -->
<g id="edge1" class="edge">
<title>cron&#45;&gt;bot</title>
<path fill="none" stroke="black" d="M547.38,-502.97C530.41,-490.03 507.35,-472.43 488.77,-458.25"/>
<polygon fill="black" stroke="black" points="490.66,-455.29 480.59,-452 486.42,-460.85 490.66,-455.29"/>
<text text-anchor="middle" x="586.5" y="-473.8" font-family="Times,serif" font-size="14.00">Chaque samedi 3h</text>
</g>
<!-- vars -->
<g id="node6" class="node">
<title>vars</title>
<path fill="lightgreen" stroke="black" d="M487.5,-541C487.5,-541 374.5,-541 374.5,-541 368.5,-541 362.5,-535 362.5,-529 362.5,-529 362.5,-515 362.5,-515 362.5,-509 368.5,-503 374.5,-503 374.5,-503 487.5,-503 487.5,-503 493.5,-503 499.5,-509 499.5,-515 499.5,-515 499.5,-529 499.5,-529 499.5,-535 493.5,-541 487.5,-541"/>
<text text-anchor="middle" x="431" y="-525.8" font-family="Times,serif" font-size="14.00">Variables</text>
<text text-anchor="middle" x="431" y="-510.8" font-family="Times,serif" font-size="14.00">d&#39;environnement</text>
</g>
<!-- vars&#45;&gt;bot -->
<g id="edge11" class="edge">
<title>vars&#45;&gt;bot</title>
<path fill="none" stroke="black" d="M395.59,-502.83C382.85,-493.77 373.31,-482.15 381,-470 385.23,-463.32 391.07,-457.86 397.64,-453.39"/>
<polygon fill="black" stroke="black" points="399.49,-456.37 406.31,-448.26 395.92,-450.34 399.49,-456.37"/>
<text text-anchor="middle" x="430" y="-473.8" font-family="Times,serif" font-size="14.00">Configuration</text>
</g>
<!-- fetch_events&#45;&gt;events -->
<g id="edge3" class="edge">
<title>fetch_events&#45;&gt;events</title>
<path fill="none" stroke="black" d="M257.6,-313.24C299.05,-307.91 338.86,-299.43 354,-286 366.35,-275.05 371.61,-257.29 373.79,-242.15"/>
<polygon fill="black" stroke="black" points="377.27,-242.52 374.85,-232.2 370.31,-241.78 377.27,-242.52"/>
<text text-anchor="middle" x="406.5" y="-274.8" font-family="Times,serif" font-size="14.00">API Discord</text>
</g>
<!-- process_friday -->
<g id="node8" class="node">
<title>process_friday</title>
<path fill="lightcoral" stroke="black" d="M203.5,-232C203.5,-232 70.5,-232 70.5,-232 64.5,-232 58.5,-226 58.5,-220 58.5,-220 58.5,-206 58.5,-206 58.5,-200 64.5,-194 70.5,-194 70.5,-194 203.5,-194 203.5,-194 209.5,-194 215.5,-200 215.5,-206 215.5,-206 215.5,-220 215.5,-220 215.5,-226 209.5,-232 203.5,-232"/>
<text text-anchor="middle" x="137" y="-216.8" font-family="Times,serif" font-size="14.00">processOneFriday()</text>
<text text-anchor="middle" x="137" y="-201.8" font-family="Times,serif" font-size="14.00">Traite un vendredi</text>
</g>
<!-- fetch_events&#45;&gt;process_friday -->
<g id="edge5" class="edge">
<title>fetch_events&#45;&gt;process_friday</title>
<path fill="none" stroke="black" d="M136.39,-303.69C136.23,-298.02 136.08,-291.75 136,-286 135.8,-271.64 135.98,-255.68 136.24,-242.44"/>
<polygon fill="black" stroke="black" points="139.75,-242.12 136.47,-232.05 132.75,-241.97 139.75,-242.12"/>
<text text-anchor="middle" x="170" y="-274.8" font-family="Times,serif" font-size="14.00">2. Traiter</text>
</g>
<!-- process_friday&#45;&gt;check_duplicates -->
<g id="edge6" class="edge">
<title>process_friday&#45;&gt;check_duplicates</title>
<path fill="none" stroke="black" d="M143.84,-193.97C148.4,-181.96 154.47,-165.94 159.62,-152.36"/>
<polygon fill="black" stroke="black" points="162.9,-153.59 163.17,-143 156.35,-151.11 162.9,-153.59"/>
<text text-anchor="middle" x="190.5" y="-164.8" font-family="Times,serif" font-size="14.00">3. Vérifier</text>
</g>
<!-- create_post -->
<g id="node9" class="node">
<title>create_post</title>
<path fill="lightcoral" stroke="black" d="M241.5,-54C241.5,-54 94.5,-54 94.5,-54 88.5,-54 82.5,-48 82.5,-42 82.5,-42 82.5,-28 82.5,-28 82.5,-22 88.5,-16 94.5,-16 94.5,-16 241.5,-16 241.5,-16 247.5,-16 253.5,-22 253.5,-28 253.5,-28 253.5,-42 253.5,-42 253.5,-48 247.5,-54 241.5,-54"/>
<text text-anchor="middle" x="168" y="-38.8" font-family="Times,serif" font-size="14.00">createForumPost()</text>
<text text-anchor="middle" x="168" y="-23.8" font-family="Times,serif" font-size="14.00">Crée/met à jour posts</text>
</g>
<!-- create_post&#45;&gt;forum -->
<g id="edge10" class="edge">
<title>create_post&#45;&gt;forum</title>
<path fill="none" stroke="black" d="M253.79,-42.46C338.41,-53.34 465.93,-82.55 543,-161 549.1,-167.21 552.88,-175.72 555.22,-184.01"/>
<polygon fill="black" stroke="black" points="551.82,-184.85 557.42,-193.85 558.65,-183.32 551.82,-184.85"/>
<text text-anchor="middle" x="587.5" y="-120.3" font-family="Times,serif" font-size="14.00">Nouveau post/MAJ</text>
</g>
<!-- check_duplicates&#45;&gt;forum -->
<g id="edge7" class="edge">
<title>check_duplicates&#45;&gt;forum</title>
<path fill="none" stroke="black" d="M253.57,-136.12C292.59,-142.11 339.49,-150.46 381,-161 401.02,-166.09 405.02,-170.74 425,-176 448.18,-182.11 454.77,-180.1 478,-186 484.01,-187.53 490.23,-189.25 496.43,-191.07"/>
<polygon fill="black" stroke="black" points="495.53,-194.45 506.12,-193.99 497.55,-187.75 495.53,-194.45"/>
<text text-anchor="middle" x="484" y="-164.8" font-family="Times,serif" font-size="14.00">Recherche posts</text>
</g>
<!-- check_duplicates&#45;&gt;create_post -->
<g id="edge9" class="edge">
<title>check_duplicates&#45;&gt;create_post</title>
<path fill="none" stroke="black" d="M169.59,-104.97C169.31,-93.19 168.96,-77.56 168.65,-64.16"/>
<polygon fill="black" stroke="black" points="172.14,-63.92 168.41,-54 165.14,-64.08 172.14,-63.92"/>
<text text-anchor="middle" x="215.5" y="-75.8" font-family="Times,serif" font-size="14.00">4. Créer/MAJ</text>
</g>
</g>
</svg>
