<?xml version="1.0" encoding="UTF-8" standalone="no"?>
<!DOCTYPE svg PUBLIC "-//W3C//DTD SVG 1.1//EN"
 "http://www.w3.org/Graphics/SVG/1.1/DTD/svg11.dtd">
<!-- Generated by graphviz version 2.43.0 (0)
 -->
<!-- Title: data_flow Pages: 1 -->
<svg width="1404pt" height="170pt"
 viewBox="0.00 0.00 1404.24 169.74" xmlns="http://www.w3.org/2000/svg" xmlns:xlink="http://www.w3.org/1999/xlink">
<g id="graph0" class="graph" transform="scale(1 1) rotate(0) translate(4 165.74)">
<title>data_flow</title>
<polygon fill="white" stroke="transparent" points="-4,4 -4,-165.74 1400.24,-165.74 1400.24,4 -4,4"/>
<!-- discord_events -->
<g id="node1" class="node">
<title>discord_events</title>
<ellipse fill="lightblue" stroke="black" cx="74.25" cy="-134.87" rx="74.49" ry="26.74"/>
<text text-anchor="middle" x="74.25" y="-138.67" font-family="Times,serif" font-size="14.00">Événements</text>
<text text-anchor="middle" x="74.25" y="-123.67" font-family="Times,serif" font-size="14.00">Discord</text>
</g>
<!-- event_search -->
<g id="node4" class="node">
<title>event_search</title>
<ellipse fill="lightyellow" stroke="black" cx="333.86" cy="-98.87" rx="76.24" ry="26.74"/>
<text text-anchor="middle" x="333.86" y="-102.67" font-family="Times,serif" font-size="14.00">Recherche</text>
<text text-anchor="middle" x="333.86" y="-87.67" font-family="Times,serif" font-size="14.00">d&#39;événement</text>
</g>
<!-- discord_events&#45;&gt;event_search -->
<g id="edge1" class="edge">
<title>discord_events&#45;&gt;event_search</title>
<path fill="none" stroke="black" d="M143.94,-125.27C177.32,-120.61 217.63,-114.97 252.43,-110.11"/>
<polygon fill="black" stroke="black" points="253.14,-113.54 262.56,-108.69 252.17,-106.61 253.14,-113.54"/>
<text text-anchor="middle" x="202.99" y="-124.67" font-family="Times,serif" font-size="14.00">API fetch</text>
</g>
<!-- config_env -->
<g id="node2" class="node">
<title>config_env</title>
<ellipse fill="lightblue" stroke="black" cx="74.25" cy="-62.87" rx="58.88" ry="26.74"/>
<text text-anchor="middle" x="74.25" y="-66.67" font-family="Times,serif" font-size="14.00">Variables</text>
<text text-anchor="middle" x="74.25" y="-51.67" font-family="Times,serif" font-size="14.00">.env</text>
</g>
<!-- config_env&#45;&gt;event_search -->
<g id="edge2" class="edge">
<title>config_env&#45;&gt;event_search</title>
<path fill="none" stroke="black" d="M130.51,-70.59C166.08,-75.56 212.91,-82.11 252.56,-87.65"/>
<polygon fill="black" stroke="black" points="252.08,-91.12 262.47,-89.03 253.05,-84.18 252.08,-91.12"/>
<text text-anchor="middle" x="202.99" y="-88.67" font-family="Times,serif" font-size="14.00">IDs, URLs</text>
</g>
<!-- default_values -->
<g id="node3" class="node">
<title>default_values</title>
<ellipse fill="lightblue" stroke="black" cx="333.86" cy="-26.87" rx="64.19" ry="26.74"/>
<text text-anchor="middle" x="333.86" y="-30.67" font-family="Times,serif" font-size="14.00">Valeurs</text>
<text text-anchor="middle" x="333.86" y="-15.67" font-family="Times,serif" font-size="14.00">par défaut</text>
</g>
<!-- data_extraction -->
<g id="node5" class="node">
<title>data_extraction</title>
<ellipse fill="lightyellow" stroke="black" cx="656.28" cy="-45.87" rx="65.11" ry="26.74"/>
<text text-anchor="middle" x="656.28" y="-49.67" font-family="Times,serif" font-size="14.00">Extraction</text>
<text text-anchor="middle" x="656.28" y="-34.67" font-family="Times,serif" font-size="14.00">données</text>
</g>
<!-- default_values&#45;&gt;data_extraction -->
<g id="edge4" class="edge">
<title>default_values&#45;&gt;data_extraction</title>
<path fill="none" stroke="black" stroke-dasharray="5,2" d="M397.78,-30.6C450.54,-33.73 525.96,-38.2 581.54,-41.5"/>
<polygon fill="black" stroke="black" points="581.49,-45 591.68,-42.1 581.91,-38.01 581.49,-45"/>
<text text-anchor="middle" x="500.73" y="-43.67" font-family="Times,serif" font-size="14.00">Si aucun événement</text>
</g>
<!-- event_search&#45;&gt;data_extraction -->
<g id="edge3" class="edge">
<title>event_search&#45;&gt;data_extraction</title>
<path fill="none" stroke="black" d="M403.21,-87.57C456.91,-78.68 531.4,-66.36 585.48,-57.42"/>
<polygon fill="black" stroke="black" points="586.37,-60.82 595.66,-55.73 585.23,-53.91 586.37,-60.82"/>
<text text-anchor="middle" x="500.73" y="-86.67" font-family="Times,serif" font-size="14.00">Événement trouvé</text>
</g>
<!-- event_info -->
<g id="node8" class="node">
<title>event_info</title>
<polygon fill="lightcoral" stroke="black" points="898.34,-87.37 758.34,-87.37 758.34,-4.37 898.34,-4.37 898.34,-87.37"/>
<text text-anchor="middle" x="828.34" y="-72.17" font-family="Times,serif" font-size="14.00">Infos événement:</text>
<text text-anchor="middle" x="828.34" y="-57.17" font-family="Times,serif" font-size="14.00">• Date/Heure</text>
<text text-anchor="middle" x="828.34" y="-42.17" font-family="Times,serif" font-size="14.00">• Lieu</text>
<text text-anchor="middle" x="828.34" y="-27.17" font-family="Times,serif" font-size="14.00">• Description</text>
<text text-anchor="middle" x="828.34" y="-12.17" font-family="Times,serif" font-size="14.00">• Lien</text>
</g>
<!-- data_extraction&#45;&gt;event_info -->
<g id="edge5" class="edge">
<title>data_extraction&#45;&gt;event_info</title>
<path fill="none" stroke="black" d="M721.57,-45.87C730.16,-45.87 739.04,-45.87 747.85,-45.87"/>
<polygon fill="black" stroke="black" points="748.13,-49.37 758.13,-45.87 748.13,-42.37 748.13,-49.37"/>
</g>
<!-- post_creation -->
<g id="node6" class="node">
<title>post_creation</title>
<ellipse fill="lightyellow" stroke="black" cx="990.49" cy="-45.87" rx="55.31" ry="26.74"/>
<text text-anchor="middle" x="990.49" y="-49.67" font-family="Times,serif" font-size="14.00">Création</text>
<text text-anchor="middle" x="990.49" y="-34.67" font-family="Times,serif" font-size="14.00">post</text>
</g>
<!-- embed_data -->
<g id="node9" class="node">
<title>embed_data</title>
<polygon fill="lightcoral" stroke="black" points="1220.14,-150.37 1083.14,-150.37 1083.14,-67.37 1220.14,-67.37 1220.14,-150.37"/>
<text text-anchor="middle" x="1151.64" y="-135.17" font-family="Times,serif" font-size="14.00">Données Embed:</text>
<text text-anchor="middle" x="1151.64" y="-120.17" font-family="Times,serif" font-size="14.00">• Titre</text>
<text text-anchor="middle" x="1151.64" y="-105.17" font-family="Times,serif" font-size="14.00">• Description</text>
<text text-anchor="middle" x="1151.64" y="-90.17" font-family="Times,serif" font-size="14.00">• Champs</text>
<text text-anchor="middle" x="1151.64" y="-75.17" font-family="Times,serif" font-size="14.00">• Couleur</text>
</g>
<!-- post_creation&#45;&gt;embed_data -->
<g id="edge7" class="edge">
<title>post_creation&#45;&gt;embed_data</title>
<path fill="none" stroke="black" d="M1033.72,-62.59C1045.99,-67.44 1059.8,-72.91 1073.5,-78.33"/>
<polygon fill="black" stroke="black" points="1072.37,-81.65 1082.96,-82.08 1074.95,-75.14 1072.37,-81.65"/>
</g>
<!-- forum_post -->
<g id="node7" class="node">
<title>forum_post</title>
<ellipse fill="lightgreen" stroke="black" cx="1326.94" cy="-45.87" rx="69.09" ry="26.74"/>
<text text-anchor="middle" x="1326.94" y="-49.67" font-family="Times,serif" font-size="14.00">Post Forum</text>
<text text-anchor="middle" x="1326.94" y="-34.67" font-family="Times,serif" font-size="14.00">Discord</text>
</g>
<!-- forum_post&#45;&gt;post_creation -->
<g id="edge9" class="edge">
<title>forum_post&#45;&gt;post_creation</title>
<path fill="none" stroke="red" stroke-dasharray="5,2" d="M1257.69,-44.38C1245.36,-44.17 1232.62,-43.98 1220.64,-43.87 1159.31,-43.29 1143.97,-43.2 1082.64,-43.87 1074.02,-43.96 1064.94,-44.11 1055.98,-44.28"/>
<polygon fill="red" stroke="red" points="1055.88,-40.78 1045.95,-44.48 1056.02,-47.78 1055.88,-40.78"/>
<text text-anchor="middle" x="1151.64" y="-47.67" font-family="Times,serif" font-size="14.00">Vérif. changements</text>
</g>
<!-- event_info&#45;&gt;post_creation -->
<g id="edge6" class="edge">
<title>event_info&#45;&gt;post_creation</title>
<path fill="none" stroke="black" d="M898.65,-45.87C907.4,-45.87 916.32,-45.87 924.99,-45.87"/>
<polygon fill="black" stroke="black" points="925.03,-49.37 935.03,-45.87 925.03,-42.37 925.03,-49.37"/>
</g>
<!-- embed_data&#45;&gt;forum_post -->
<g id="edge8" class="edge">
<title>embed_data&#45;&gt;forum_post</title>
<path fill="none" stroke="black" d="M1220.64,-84.15C1235.73,-78.67 1251.61,-72.89 1266.34,-67.54"/>
<polygon fill="black" stroke="black" points="1267.62,-70.8 1275.82,-64.09 1265.23,-64.22 1267.62,-70.8"/>
</g>
</g>
</svg>
